<?xml version="1.0" encoding="utf-8" ?>
<!-- Generator: Assembly 1.0 - http://assemblyapp.co -->
<svg version="1.1" xmlns="http://www.w3.org/2000/svg" xmlns:xlink="http://www.w3.org/1999/xlink" width="300" height="300" viewBox="0 0 300 300">
	<rect x="0" y="0" width="300" height="300" fill="#ffffff" />
	<g id="widget" transform="matrix(1,0,0,1,150,150)">
		<path d="M-8.05856,148.05 L-8.05856,148.05 C-89.8759,143.597 -152.504,73.7587 -148.05,-8.05856 L-148.05,-8.05856 C-143.597,-89.8759 -73.7587,-152.504 8.05856,-148.05 L8.05856,-148.05 C89.8759,-143.597 152.504,-73.7587 148.05,8.05856 L148.05,8.05856 C143.597,89.8759 73.7587,152.504 -8.05856,148.05 Z" fill="#06100b" fill-opacity="1" stroke-width="0.266075" stroke="#dfdfdf" stroke-linecap="square" stroke-linejoin="miter" />
		<path d="M-7.95253,146.102 L-7.95253,146.102 C-88.6933,141.707 -150.497,72.7882 -146.102,-7.95253 L-146.102,-7.95253 C-141.707,-88.6933 -72.7882,-150.497 7.95253,-146.102 L7.95253,-146.102 C88.6933,-141.707 150.497,-72.7882 146.102,7.95252 L146.102,7.95252 C141.707,88.6933 72.7882,150.497 -7.95253,146.102 Z" fill="#06100b" fill-opacity="1" stroke-width="0.266075" stroke="#dfdfdf" stroke-linecap="square" stroke-linejoin="miter" />
		<path d="M-7.87874,144.018 L-7.87874,144.018 C-87.4676,139.664 -148.372,71.7101 -144.018,-7.87874 L-144.018,-7.87874 C-139.664,-87.4676 -71.7101,-148.372 7.87874,-144.018 L7.87874,-144.018 C87.4676,-139.664 148.372,-71.7101 144.018,7.87874 L144.018,7.87874 C139.664,87.4676 71.7101,148.372 -7.87874,144.018 Z" fill="#06100b" fill-opacity="1" stroke-width="0.266075" stroke="#dfdfdf" stroke-linecap="square" stroke-linejoin="miter" />
		<path d="M-7.72954,142.006 L-7.72954,142.006 C-86.2063,137.734 -146.277,70.7472 -142.006,-7.72954 L-142.006,-7.72954 C-137.734,-86.2063 -70.7472,-146.277 7.72954,-142.006 L7.72954,-142.006 C86.2063,-137.734 146.277,-70.7472 142.006,7.72954 L142.006,7.72954 C137.734,86.2063 70.7472,146.277 -7.72954,142.006 Z" fill="#06100b" fill-opacity="1" stroke-width="0.266075" stroke="#dfdfdf" stroke-linecap="square" stroke-linejoin="miter" />
		<path d="M-10.6594,139.951 L-10.6594,139.951 C-88.001,134.061 -145.842,66.6822 -139.951,-10.6594 L-139.951,-10.6594 C-134.061,-88.001 -66.6822,-145.842 10.6594,-139.951 L10.6594,-139.951 C88.001,-134.061 145.842,-66.6822 139.951,10.6594 L139.951,10.6594 C134.061,88.001 66.6822,145.842 -10.6594,139.951 Z" fill="#06100b" fill-opacity="1" stroke-width="0.266075" stroke="#dfdfdf" stroke-linecap="square" stroke-linejoin="miter" />
		<path d="M-10.5191,138.11 L-10.5191,138.11 C-86.8431,132.297 -143.923,65.8048 -138.11,-10.5191 L-138.11,-10.5191 C-132.297,-86.8431 -65.8048,-143.923 10.5191,-138.11 L10.5191,-138.11 C86.843,-132.297 143.923,-65.8048 138.11,10.5191 L138.11,10.5191 C132.297,86.8431 65.8048,143.923 -10.5191,138.11 Z" fill="#06100b" fill-opacity="1" stroke-width="0.266075" stroke="#dfdfdf" stroke-linecap="square" stroke-linejoin="miter" />
		<path d="M-10.4066,136.139 L-10.4066,136.139 C-85.6412,130.388 -141.89,64.828 -136.139,-10.4066 L-136.139,-10.4066 C-130.388,-85.6412 -64.828,-141.89 10.4066,-136.139 L10.4066,-136.139 C85.6412,-130.388 141.89,-64.828 136.139,10.4066 L136.139,10.4066 C130.388,85.6412 64.828,141.89 -10.4066,136.139 Z" fill="#06100b" fill-opacity="1" stroke-width="0.266075" stroke="#dfdfdf" stroke-linecap="square" stroke-linejoin="miter" />
		<path d="M-10.2242,134.237 L-10.2242,134.237 C-84.408,128.587 -139.888,63.9596 -134.237,-10.2242 L-134.237,-10.2242 C-128.587,-84.408 -63.9596,-139.888 10.2242,-134.237 L10.2242,-134.237 C84.408,-128.587 139.888,-63.9596 134.237,10.2242 L134.237,10.2242 C128.587,84.408 63.9596,139.888 -10.2242,134.237 Z" fill="#06100b" fill-opacity="1" stroke-width="0.266075" stroke="#dfdfdf" stroke-linecap="square" stroke-linejoin="miter" />
		<path d="M-7.2226,132.692 L-7.2226,132.692 C-80.5525,128.701 -136.684,66.1073 -132.692,-7.2226 L-132.692,-7.2226 C-128.701,-80.5525 -66.1073,-136.684 7.2226,-132.692 L7.2226,-132.692 C80.5525,-128.701 136.684,-66.1073 132.692,7.2226 L132.692,7.2226 C128.701,80.5525 66.1073,136.684 -7.2226,132.692 Z" fill="#06100b" fill-opacity="1" stroke-width="0.266075" stroke="#dfdfdf" stroke-linecap="square" stroke-linejoin="miter" />
		<path d="M-7.12757,130.946 L-7.12757,130.946 C-79.4926,127.007 -134.885,65.2375 -130.946,-7.12757 L-130.946,-7.12757 C-127.007,-79.4926 -65.2375,-134.885 7.12757,-130.946 L7.12757,-130.946 C79.4926,-127.007 134.885,-65.2375 130.946,7.12756 L130.946,7.12756 C127.007,79.4926 65.2375,134.885 -7.12757,130.946 Z" fill="#06100b" fill-opacity="1" stroke-width="0.266075" stroke="#dfdfdf" stroke-linecap="square" stroke-linejoin="miter" />
		<path d="M-7.06143,129.078 L-7.06143,129.078 C-78.3941,125.176 -132.98,64.2712 -129.078,-7.06144 L-129.078,-7.06144 C-125.176,-78.3941 -64.2712,-132.98 7.06143,-129.078 L7.06143,-129.078 C78.3941,-125.176 132.98,-64.2712 129.078,7.06143 L129.078,7.06143 C125.176,78.3941 64.2712,132.98 -7.06143,129.078 Z" fill="#06100b" fill-opacity="1" stroke-width="0.266075" stroke="#dfdfdf" stroke-linecap="square" stroke-linejoin="miter" />
		<path d="M-6.92771,127.275 L-6.92771,127.275 C-77.2636,123.446 -131.103,63.4082 -127.275,-6.92771 L-127.275,-6.92771 C-123.446,-77.2636 -63.4082,-131.103 6.92771,-127.275 L6.92771,-127.275 C77.2636,-123.446 131.103,-63.4082 127.275,6.92771 L127.275,6.92771 C123.446,77.2636 63.4082,131.103 -6.92771,127.275 Z" fill="#06100b" fill-opacity="1" stroke-width="0.266075" stroke="#dfdfdf" stroke-linecap="square" stroke-linejoin="miter" />
		<path d="M-1.23471,127.454 L-1.23471,127.454 C-71.67,126.772 -128.137,69.2006 -127.454,-1.23472 L-127.454,-1.23472 C-126.772,-71.67 -69.2006,-128.137 1.23471,-127.454 L1.23471,-127.454 C71.67,-126.772 128.137,-69.2006 127.454,1.23471 L127.454,1.23471 C126.772,71.67 69.2006,128.137 -1.23471,127.454 Z" fill="#06100b" fill-opacity="1" stroke-width="0.266075" stroke="#dfdfdf" stroke-linecap="square" stroke-linejoin="miter" />
		<path d="M-1.21847,125.777 L-1.21847,125.777 C-70.727,125.104 -126.451,68.29 -125.777,-1.21847 L-125.777,-1.21847 C-125.104,-70.727 -68.29,-126.451 1.21847,-125.777 L1.21847,-125.777 C70.727,-125.104 126.451,-68.29 125.777,1.21846 L125.777,1.21846 C125.104,70.727 68.29,126.451 -1.21847,125.777 Z" fill="#06100b" fill-opacity="1" stroke-width="0.266075" stroke="#dfdfdf" stroke-linecap="square" stroke-linejoin="miter" />
		<path d="M-1.23515,123.984 L-1.23515,123.984 C-69.7529,123.302 -124.667,67.2826 -123.984,-1.23515 L-123.984,-1.23515 C-123.302,-69.7528 -67.2826,-124.667 1.23515,-123.984 L1.23515,-123.984 C69.7528,-123.302 124.667,-67.2825 123.984,1.23515 L123.984,1.23515 C123.302,69.7529 67.2825,124.667 -1.23515,123.984 Z" fill="#06100b" fill-opacity="1" stroke-width="0.266075" stroke="#dfdfdf" stroke-linecap="square" stroke-linejoin="miter" />
		<path d="M-1.1843,122.251 L-1.1843,122.251 C-68.7438,121.596 -122.905,66.3752 -122.251,-1.1843 L-122.251,-1.1843 C-121.596,-68.7438 -66.3752,-122.905 1.1843,-122.251 L1.1843,-122.251 C68.7438,-121.596 122.905,-66.3752 122.251,1.1843 L122.251,1.1843 C121.596,68.7438 66.3752,122.905 -1.1843,122.251 Z" fill="#06100b" fill-opacity="1" stroke-width="0.266075" stroke="#dfdfdf" stroke-linecap="square" stroke-linejoin="miter" />
		<path d="M-3.77934,120.599 L-3.77934,120.599 C-70.4261,118.51 -122.688,62.8674 -120.599,-3.77934 L-120.599,-3.77934 C-118.51,-70.4261 -62.8674,-122.688 3.77934,-120.599 L3.77934,-120.599 C70.4261,-118.51 122.688,-62.8674 120.599,3.77933 L120.599,3.77933 C118.51,70.4261 62.8674,122.688 -3.77934,120.599 Z" fill="#06100b" fill-opacity="1" stroke-width="0.266075" stroke="#dfdfdf" stroke-linecap="square" stroke-linejoin="miter" />
		<path d="M-3.72961,119.012 L-3.72961,119.012 C-69.4994,116.951 -121.073,62.0402 -119.012,-3.72961 L-119.012,-3.72961 C-116.951,-69.4994 -62.0402,-121.073 3.72961,-119.012 L3.72961,-119.012 C69.4994,-116.951 121.073,-62.0402 119.012,3.72961 L119.012,3.72961 C116.951,69.4994 62.0402,121.073 -3.72961,119.012 Z" fill="#06100b" fill-opacity="1" stroke-width="0.266075" stroke="#dfdfdf" stroke-linecap="square" stroke-linejoin="miter" />
		<path d="M-3.70867,117.315 L-3.70867,117.315 C-68.5406,115.265 -119.364,61.1233 -117.315,-3.70867 L-117.315,-3.70867 C-115.265,-68.5406 -61.1233,-119.364 3.70867,-117.315 L3.70867,-117.315 C68.5406,-115.265 119.364,-61.1233 117.315,3.70867 L117.315,3.70867 C115.265,68.5406 61.1233,119.364 -3.70867,117.315 Z" fill="#06100b" fill-opacity="1" stroke-width="0.266075" stroke="#dfdfdf" stroke-linecap="square" stroke-linejoin="miter" />
		<path d="M-3.62503,115.675 L-3.62503,115.675 C-67.5507,113.672 -117.678,60.3006 -115.675,-3.62503 L-115.675,-3.62503 C-113.672,-67.5507 -60.3006,-117.678 3.62503,-115.675 L3.62503,-115.675 C67.5507,-113.672 117.678,-60.3006 115.675,3.62503 L115.675,3.62503 C113.672,67.5507 60.3006,117.678 -3.62503,115.675 Z" fill="#06100b" fill-opacity="1" stroke-width="0.266075" stroke="#dfdfdf" stroke-linecap="square" stroke-linejoin="miter" />
		<path d="M-1.10663,114.233 L-1.10663,114.233 C-64.2353,113.621 -114.844,62.022 -114.233,-1.10663 L-114.233,-1.10663 C-113.621,-64.2353 -62.022,-114.844 1.10663,-114.233 L1.10663,-114.233 C64.2353,-113.621 114.844,-62.022 114.233,1.10663 L114.233,1.10663 C113.621,64.2353 62.022,114.844 -1.10663,114.233 Z" fill="#06100b" fill-opacity="1" stroke-width="0.266075" stroke="#dfdfdf" stroke-linecap="square" stroke-linejoin="miter" />
		<path d="M-1.09207,112.73 L-1.09207,112.73 C-63.3901,112.126 -113.333,61.2059 -112.73,-1.09207 L-112.73,-1.09207 C-112.126,-63.3901 -61.2059,-113.333 1.09207,-112.73 L1.09207,-112.73 C63.39,-112.126 113.333,-61.2059 112.73,1.09207 L112.73,1.09207 C112.126,63.3901 61.2059,113.333 -1.09207,112.73 Z" fill="#06100b" fill-opacity="1" stroke-width="0.266075" stroke="#dfdfdf" stroke-linecap="square" stroke-linejoin="miter" />
		<path d="M-1.10702,111.123 L-1.10702,111.123 C-62.517,110.511 -111.735,60.303 -111.123,-1.10702 L-111.123,-1.10702 C-110.511,-62.517 -60.3029,-111.735 1.10702,-111.123 L1.10702,-111.123 C62.517,-110.511 111.735,-60.3029 111.123,1.10702 L111.123,1.10702 C110.511,62.517 60.3029,111.735 -1.10702,111.123 Z" fill="#06100b" fill-opacity="1" stroke-width="0.266075" stroke="#dfdfdf" stroke-linecap="square" stroke-linejoin="miter" />
		<path d="M-1.06145,109.569 L-1.06145,109.569 C-61.6126,108.982 -110.155,59.4897 -109.569,-1.06145 L-109.569,-1.06145 C-108.982,-61.6126 -59.4897,-110.155 1.06145,-109.569 L1.06145,-109.569 C61.6126,-108.982 110.155,-59.4897 109.569,1.06145 L109.569,1.06145 C108.982,61.6126 59.4897,110.155 -1.06145,109.569 Z" fill="#06100b" fill-opacity="1" stroke-width="0.266075" stroke="#dfdfdf" stroke-linecap="square" stroke-linejoin="miter" />
		<path d="M-5.9255,109.416 L-5.9255,109.416 C-66.3921,106.141 -112.69,54.5411 -109.416,-5.9255 L-109.416,-5.9255 C-106.141,-66.3921 -54.5411,-112.69 5.9255,-109.416 L5.9255,-109.416 C66.3921,-106.141 112.69,-54.5411 109.416,5.9255 L109.416,5.9255 C106.141,66.3921 54.5411,112.69 -5.9255,109.416 Z" fill="#06100b" fill-opacity="1" stroke-width="0.266075" stroke="#dfdfdf" stroke-linecap="square" stroke-linejoin="miter" />
		<path d="M-5.84753,107.976 L-5.84753,107.976 C-65.5185,104.745 -111.208,53.8235 -107.976,-5.84753 L-107.976,-5.84753 C-104.745,-65.5185 -53.8235,-111.208 5.84753,-107.976 L5.84753,-107.976 C65.5185,-104.745 111.208,-53.8235 107.976,5.84753 L107.976,5.84753 C104.745,65.5185 53.8235,111.208 -5.84753,107.976 Z" fill="#06100b" fill-opacity="1" stroke-width="0.266075" stroke="#dfdfdf" stroke-linecap="square" stroke-linejoin="miter" />
		<path d="M-5.79343,106.436 L-5.79343,106.436 C-64.6131,103.234 -109.637,53.0263 -106.436,-5.79343 L-106.436,-5.79343 C-103.234,-64.6131 -53.0263,-109.637 5.79342,-106.436 L5.79342,-106.436 C64.6131,-103.234 109.637,-53.0263 106.436,5.79342 L106.436,5.79342 C103.234,64.6132 53.0263,109.637 -5.79343,106.436 Z" fill="#06100b" fill-opacity="1" stroke-width="0.266075" stroke="#dfdfdf" stroke-linecap="square" stroke-linejoin="miter" />
		<path d="M-5.68357,104.948 L-5.68357,104.948 C-63.6814,101.808 -108.089,52.3143 -104.948,-5.68357 L-104.948,-5.68357 C-101.808,-63.6814 -52.3143,-108.089 5.68357,-104.948 L5.68357,-104.948 C63.6814,-101.808 108.089,-52.3143 104.948,5.68357 L104.948,5.68357 C101.808,63.6814 52.3143,108.089 -5.68357,104.948 Z" fill="#06100b" fill-opacity="1" stroke-width="0.266075" stroke="#dfdfdf" stroke-linecap="square" stroke-linejoin="miter" />
		<path d="M-7.84925,103.431 L-7.84925,103.431 C-65.0085,99.0932 -107.769,49.31 -103.431,-7.84925 L-103.431,-7.84925 C-99.0932,-65.0085 -49.31,-107.769 7.84925,-103.431 L7.84925,-103.431 C65.0085,-99.0932 107.769,-49.31 103.431,7.84925 L103.431,7.84925 C99.0932,65.0085 49.31,107.769 -7.84925,103.431 Z" fill="#06100b" fill-opacity="1" stroke-width="0.266075" stroke="#dfdfdf" stroke-linecap="square" stroke-linejoin="miter" />
		<path d="M-7.74597,102.07 L-7.74597,102.07 C-64.1531,97.7894 -106.351,48.6612 -102.07,-7.74597 L-102.07,-7.74597 C-97.7894,-64.1531 -48.6612,-106.351 7.74597,-102.07 L7.74597,-102.07 C64.1531,-97.7894 106.351,-48.6612 102.07,7.74596 L102.07,7.74596 C97.7894,64.1531 48.6611,106.351 -7.74597,102.07 Z" fill="#06100b" fill-opacity="1" stroke-width="0.266075" stroke="#dfdfdf" stroke-linecap="square" stroke-linejoin="miter" />
		<path d="M-7.6632,100.613 L-7.6632,100.613 C-63.2653,96.3783 -104.848,47.9389 -100.613,-7.6632 L-100.613,-7.6632 C-96.3783,-63.2653 -47.9389,-104.848 7.6632,-100.613 L7.6632,-100.613 C63.2653,-96.3783 104.848,-47.9389 100.613,7.6632 L100.613,7.6632 C96.3783,63.2653 47.9388,104.848 -7.6632,100.613 Z" fill="#06100b" fill-opacity="1" stroke-width="0.266075" stroke="#dfdfdf" stroke-linecap="square" stroke-linejoin="miter" />
		<path d="M-7.52877,99.208 L-7.52877,99.208 C-62.3542,95.0474 -103.369,47.2967 -99.208,-7.52877 L-99.208,-7.52877 C-95.0474,-62.3542 -47.2967,-103.369 7.52877,-99.208 L7.52877,-99.208 C62.3542,-95.0474 103.369,-47.2967 99.208,7.52877 L99.208,7.52877 C95.0474,62.3542 47.2967,103.369 -7.52877,99.208 Z" fill="#06100b" fill-opacity="1" stroke-width="0.266075" stroke="#dfdfdf" stroke-linecap="square" stroke-linejoin="miter" />
		<path d="M-5.31081,98.0655 L-5.31081,98.0655 C-59.5049,95.1306 -101,48.8833 -98.0655,-5.31082 L-98.0655,-5.31082 C-95.1306,-59.5049 -48.8833,-101 5.31081,-98.0655 L5.31081,-98.0655 C59.5049,-95.1306 101,-48.8833 98.0655,5.31081 L98.0655,5.31081 C95.1306,59.5049 48.8833,101 -5.31081,98.0655 Z" fill="#06100b" fill-opacity="1" stroke-width="0.266075" stroke="#dfdfdf" stroke-linecap="square" stroke-linejoin="miter" />
		<path d="M-5.24093,96.7751 L-5.24093,96.7751 C-58.7219,93.8788 -99.6714,48.2401 -96.7751,-5.24094 L-96.7751,-5.24094 C-93.8788,-58.7219 -48.2401,-99.6714 5.24093,-96.7751 L5.24093,-96.7751 C58.7219,-93.8788 99.6714,-48.2401 96.7751,5.24093 L96.7751,5.24093 C93.8788,58.7219 48.2401,99.6714 -5.24093,96.7751 Z" fill="#06100b" fill-opacity="1" stroke-width="0.266075" stroke="#dfdfdf" stroke-linecap="square" stroke-linejoin="miter" />
		<path d="M-5.19244,95.3945 L-5.19244,95.3945 C-57.9105,92.525 -98.264,47.5256 -95.3945,-5.19244 L-95.3945,-5.19244 C-92.525,-57.9105 -47.5256,-98.264 5.19244,-95.3945 L5.19244,-95.3945 C57.9104,-92.525 98.264,-47.5256 95.3945,5.19244 L95.3945,5.19244 C92.525,57.9105 47.5256,98.264 -5.19244,95.3945 Z" fill="#06100b" fill-opacity="1" stroke-width="0.266075" stroke="#dfdfdf" stroke-linecap="square" stroke-linejoin="miter" />
		<path d="M-5.09398,94.0616 L-5.09398,94.0616 C-57.0754,91.2465 -96.8767,46.8874 -94.0616,-5.09398 L-94.0616,-5.09398 C-91.2465,-57.0754 -46.8874,-96.8767 5.09398,-94.0616 L5.09398,-94.0616 C57.0754,-91.2465 96.8767,-46.8874 94.0616,5.09398 L94.0616,5.09398 C91.2465,57.0754 46.8874,96.8767 -5.09398,94.0616 Z" fill="#06100b" fill-opacity="1" stroke-width="0.266075" stroke="#dfdfdf" stroke-linecap="square" stroke-linejoin="miter" />
		<path d="M-0.886627,94.1933 L-0.886627,94.1933 C-52.9408,93.7033 -94.6833,51.1676 -94.1933,-0.886628 L-94.1933,-0.886628 C-93.7033,-52.9408 -51.1676,-94.6833 0.886627,-94.1933 L0.886627,-94.1933 C52.9408,-93.7033 94.6833,-51.1676 94.1933,0.886625 L94.1933,0.886625 C93.7033,52.9408 51.1676,94.6833 -0.886627,94.1933 Z" fill="#06100b" fill-opacity="1" stroke-width="0.266075" stroke="#dfdfdf" stroke-linecap="square" stroke-linejoin="miter" />
		<path d="M-0.87496,92.9539 L-0.87496,92.9539 C-52.2442,92.4704 -93.4374,50.4943 -92.9539,-0.874962 L-92.9539,-0.874962 C-92.4704,-52.2442 -50.4943,-93.4374 0.87496,-92.9539 L0.87496,-92.9539 C52.2442,-92.4704 93.4374,-50.4943 92.9539,0.874959 L92.9539,0.874959 C92.4704,52.2442 50.4943,93.4374 -0.87496,92.9539 Z" fill="#06100b" fill-opacity="1" stroke-width="0.266075" stroke="#dfdfdf" stroke-linecap="square" stroke-linejoin="miter" />
		<path d="M-0.887654,91.6289 L-0.887654,91.6289 C-51.5247,91.1384 -92.1194,49.7494 -91.6289,-0.887656 L-91.6289,-0.887656 C-91.1384,-51.5247 -49.7494,-92.1194 0.887654,-91.6289 L0.887654,-91.6289 C51.5247,-91.1384 92.1194,-49.7494 91.6289,0.887653 L91.6289,0.887653 C91.1384,51.5247 49.7494,92.1194 -0.887654,91.6289 Z" fill="#06100b" fill-opacity="1" stroke-width="0.266075" stroke="#dfdfdf" stroke-linecap="square" stroke-linejoin="miter" />
		<path d="M-0.850427,90.3475 L-0.850427,90.3475 C-50.7793,89.8775 -90.8174,49.0784 -90.3475,-0.850428 L-90.3475,-0.850428 C-89.8775,-50.7793 -49.0784,-90.8174 0.850427,-90.3475 L0.850427,-90.3475 C50.7793,-89.8775 90.8174,-49.0784 90.3475,0.850425 L90.3475,0.850425 C89.8775,50.7793 49.0784,90.8174 -0.850427,90.3475 Z" fill="#06100b" fill-opacity="1" stroke-width="0.266075" stroke="#dfdfdf" stroke-linecap="square" stroke-linejoin="miter" />
		<path d="M-2.76858,89.1274 L-2.76858,89.1274 C-52.0232,87.5974 -90.6574,46.4861 -89.1274,-2.76858 L-89.1274,-2.76858 C-87.5974,-52.0232 -46.4861,-90.6574 2.76858,-89.1274 L2.76858,-89.1274 C52.0232,-87.5974 90.6574,-46.4861 89.1274,2.76858 L89.1274,2.76858 C87.5974,52.0232 46.486,90.6574 -2.76858,89.1274 Z" fill="#06100b" fill-opacity="1" stroke-width="0.266075" stroke="#dfdfdf" stroke-linecap="square" stroke-linejoin="miter" />
		<path d="M-2.73215,87.9547 L-2.73215,87.9547 C-51.3387,86.4448 -89.4646,45.8744 -87.9547,-2.73215 L-87.9547,-2.73215 C-86.4448,-51.3387 -45.8744,-89.4646 2.73215,-87.9547 L2.73215,-87.9547 C51.3387,-86.4448 89.4646,-45.8744 87.9547,2.73215 L87.9547,2.73215 C86.4448,51.3387 45.8744,89.4646 -2.73215,87.9547 Z" fill="#06100b" fill-opacity="1" stroke-width="0.266075" stroke="#dfdfdf" stroke-linecap="square" stroke-linejoin="miter" />
		<path d="M-2.71702,86.7004 L-2.71702,86.7004 C-50.6304,85.1989 -88.2019,45.1964 -86.7004,-2.71702 L-86.7004,-2.71702 C-85.1989,-50.6304 -45.1964,-88.2019 2.71702,-86.7004 L2.71702,-86.7004 C50.6304,-85.1989 88.2019,-45.1964 86.7004,2.71702 L86.7004,2.71702 C85.1989,50.6304 45.1964,88.2019 -2.71702,86.7004 Z" fill="#06100b" fill-opacity="1" stroke-width="0.266075" stroke="#dfdfdf" stroke-linecap="square" stroke-linejoin="miter" />
		<path d="M-2.65554,85.4884 L-2.65554,85.4884 C-49.8992,84.0209 -86.956,44.5881 -85.4884,-2.65554 L-85.4884,-2.65554 C-84.0209,-49.8992 -44.5881,-86.956 2.65554,-85.4884 L2.65554,-85.4884 C49.8991,-84.0209 86.956,-44.5881 85.4884,2.65554 L85.4884,2.65554 C84.0209,49.8992 44.5881,86.956 -2.65554,85.4884 Z" fill="#06100b" fill-opacity="1" stroke-width="0.266075" stroke="#dfdfdf" stroke-linecap="square" stroke-linejoin="miter" />
		<path d="M-0.794652,84.4221 L-0.794652,84.4221 C-47.449,83.9829 -84.8612,45.8597 -84.4221,-0.794653 L-84.4221,-0.794653 C-83.9829,-47.449 -45.8597,-84.8612 0.794652,-84.4221 L0.794652,-84.4221 C47.449,-83.9829 84.8612,-45.8597 84.4221,0.794651 L84.4221,0.794651 C83.9829,47.449 45.8597,84.8612 -0.794652,84.4221 Z" fill="#06100b" fill-opacity="1" stroke-width="0.266075" stroke="#dfdfdf" stroke-linecap="square" stroke-linejoin="miter" />
		<path d="M-0.784196,83.3113 L-0.784196,83.3113 C-46.8246,82.8779 -83.7446,45.2562 -83.3113,-0.784197 L-83.3113,-0.784197 C-82.8779,-46.8246 -45.2562,-83.7446 0.784196,-83.3113 L0.784196,-83.3113 C46.8246,-82.8779 83.7446,-45.2562 83.3113,0.784195 L83.3113,0.784195 C82.8779,46.8246 45.2562,83.7446 -0.784196,83.3113 Z" fill="#06100b" fill-opacity="1" stroke-width="0.266075" stroke="#dfdfdf" stroke-linecap="square" stroke-linejoin="miter" />
		<path d="M-0.795573,82.1237 L-0.795573,82.1237 C-46.1797,81.6841 -82.5634,44.5886 -82.1237,-0.795574 L-82.1237,-0.795574 C-81.6841,-46.1797 -44.5886,-82.5634 0.795573,-82.1237 L0.795573,-82.1237 C46.1797,-81.6841 82.5634,-44.5886 82.1237,0.795572 L82.1237,0.795572 C81.6841,46.1797 44.5886,82.5634 -0.795573,82.1237 Z" fill="#06100b" fill-opacity="1" stroke-width="0.266075" stroke="#dfdfdf" stroke-linecap="square" stroke-linejoin="miter" />
		<path d="M-0.762207,80.9752 L-0.762207,80.9752 C-45.5117,80.554 -81.3964,43.9873 -80.9752,-0.762208 L-80.9752,-0.762208 C-80.554,-45.5117 -43.9873,-81.3964 0.762207,-80.9752 L0.762207,-80.9752 C45.5117,-80.554 81.3964,-43.9873 80.9752,0.762206 L80.9752,0.762206 C80.554,45.5117 43.9872,81.3964 -0.762207,80.9752 Z" fill="#06100b" fill-opacity="1" stroke-width="0.266075" stroke="#dfdfdf" stroke-linecap="square" stroke-linejoin="miter" />
		<path d="M-0.0222388,80.9781 L-0.0222388,80.9781 C-44.7733,80.9658 -80.9904,44.7288 -80.9781,-0.0222399 L-80.9781,-0.0222399 C-80.9658,-44.7733 -44.7288,-80.9904 0.0222386,-80.9781 L0.0222386,-80.9781 C44.7733,-80.9658 80.9904,-44.7288 80.9781,0.0222375 L80.9781,0.0222375 C80.9658,44.7733 44.7288,80.9904 -0.0222388,80.9781 Z" fill="#06100b" fill-opacity="1" stroke-width="0.266075" stroke="#dfdfdf" stroke-linecap="square" stroke-linejoin="miter" />
		<path d="M-0.0219462,79.9126 L-0.0219462,79.9126 C-44.1842,79.9005 -79.9247,44.1403 -79.9126,-0.0219472 L-79.9126,-0.0219472 C-79.9005,-44.1842 -44.1403,-79.9247 0.0219459,-79.9126 L0.0219459,-79.9126 C44.1842,-79.9005 79.9247,-44.1403 79.9126,0.0219449 L79.9126,0.0219449 C79.9005,44.1842 44.1403,79.9247 -0.0219462,79.9126 Z" fill="#06100b" fill-opacity="1" stroke-width="0.266075" stroke="#dfdfdf" stroke-linecap="square" stroke-linejoin="miter" />
		<path d="M-0.0432667,78.7737 L-0.0432667,78.7737 C-43.5761,78.7498 -78.7976,43.4896 -78.7737,-0.0432677 L-78.7737,-0.0432677 C-78.7498,-43.5761 -43.4896,-78.7976 0.0432665,-78.7737 L0.0432665,-78.7737 C43.5761,-78.7498 78.7976,-43.4896 78.7737,0.0432654 L78.7737,0.0432654 C78.7498,43.5761 43.4896,78.7976 -0.0432667,78.7737 Z" fill="#06100b" fill-opacity="1" stroke-width="0.266075" stroke="#dfdfdf" stroke-linecap="square" stroke-linejoin="miter" />
		<path d="M-0.0213307,77.6719 L-0.0213307,77.6719 C-42.9453,77.6601 -77.6836,42.9026 -77.6719,-0.0213319 L-77.6719,-0.0213319 C-77.6601,-42.9453 -42.9026,-77.6836 0.0213307,-77.6719 L0.0213307,-77.6719 C42.9452,-77.6601 77.6836,-42.9026 77.6719,0.0213295 L77.6719,0.0213295 C77.6601,42.9453 42.9026,77.6836 -0.0213307,77.6719 Z" fill="#06100b" fill-opacity="1" stroke-width="0.266075" stroke="#dfdfdf" stroke-linecap="square" stroke-linejoin="miter" />
		<path d="M-1.67981,76.6381 L-1.67981,76.6381 C-44.0325,75.7098 -77.5665,40.6729 -76.6381,-1.67981 L-76.6381,-1.67981 C-75.7098,-44.0325 -40.6728,-77.5665 1.67981,-76.6381 L1.67981,-76.6381 C44.0325,-75.7098 77.5665,-40.6728 76.6381,1.67981 L76.6381,1.67981 C75.7098,44.0325 40.6728,77.5665 -1.67981,76.6381 Z" fill="#06100b" fill-opacity="1" stroke-width="0.266075" stroke="#dfdfdf" stroke-linecap="square" stroke-linejoin="miter" />
		<path d="M-1.65771,75.6297 L-1.65771,75.6297 C-43.4531,74.7136 -76.5458,40.1377 -75.6297,-1.65771 L-75.6297,-1.65771 C-74.7136,-43.4531 -40.1377,-76.5458 1.65771,-75.6297 L1.65771,-75.6297 C43.4531,-74.7136 76.5458,-40.1377 75.6297,1.65771 L75.6297,1.65771 C74.7136,43.4531 40.1377,76.5458 -1.65771,75.6297 Z" fill="#06100b" fill-opacity="1" stroke-width="0.266075" stroke="#dfdfdf" stroke-linecap="square" stroke-linejoin="miter" />
		<path d="M-1.65456,74.5514 L-1.65456,74.5514 C-42.854,73.6371 -75.4658,39.5449 -74.5514,-1.65456 L-74.5514,-1.65456 C-73.6371,-42.854 -39.5449,-75.4658 1.65456,-74.5514 L1.65456,-74.5514 C42.854,-73.6371 75.4658,-39.5449 74.5514,1.65456 L74.5514,1.65456 C73.6371,42.854 39.5449,75.4658 -1.65456,74.5514 Z" fill="#06100b" fill-opacity="1" stroke-width="0.266075" stroke="#dfdfdf" stroke-linecap="square" stroke-linejoin="miter" />
		<path d="M-1.61123,73.5091 L-1.61123,73.5091 C-42.2347,72.6187 -74.3995,39.0122 -73.5091,-1.61123 L-73.5091,-1.61123 C-72.6187,-42.2347 -39.0122,-74.3995 1.61123,-73.5091 L1.61123,-73.5091 C42.2347,-72.6187 74.3995,-39.0122 73.5091,1.61123 L73.5091,1.61123 C72.6187,42.2347 39.0122,74.3995 -1.61123,73.5091 Z" fill="#06100b" fill-opacity="1" stroke-width="0.266075" stroke="#dfdfdf" stroke-linecap="square" stroke-linejoin="miter" />
		<path d="M-0.0199318,72.5778 L-0.0199318,72.5778 C-40.1287,72.5668 -72.5888,40.0889 -72.5778,-0.0199328 L-72.5778,-0.0199328 C-72.5668,-40.1287 -40.0889,-72.5888 0.0199316,-72.5778 L0.0199316,-72.5778 C40.1287,-72.5668 72.5888,-40.0889 72.5778,0.0199307 L72.5778,0.0199307 C72.5668,40.1287 40.0888,72.5888 -0.0199318,72.5778 Z" fill="#06100b" fill-opacity="1" stroke-width="0.266075" stroke="#dfdfdf" stroke-linecap="square" stroke-linejoin="miter" />
		<path d="M-0.0196696,71.6228 L-0.0196696,71.6228 C-39.6007,71.6119 -71.6337,39.5614 -71.6228,-0.0196705 L-71.6228,-0.0196705 C-71.6119,-39.6007 -39.5614,-71.6337 0.0196693,-71.6228 L0.0196693,-71.6228 C39.6007,-71.6119 71.6337,-39.5614 71.6228,0.0196684 L71.6228,0.0196684 C71.6119,39.6007 39.5614,71.6337 -0.0196696,71.6228 Z" fill="#06100b" fill-opacity="1" stroke-width="0.266075" stroke="#dfdfdf" stroke-linecap="square" stroke-linejoin="miter" />
		<path d="M-0.0387784,70.6021 L-0.0387784,70.6021 C-39.0557,70.5806 -70.6235,38.9781 -70.6021,-0.0387793 L-70.6021,-0.0387793 C-70.5806,-39.0557 -38.9781,-70.6235 0.0387782,-70.6021 L0.0387782,-70.6021 C39.0557,-70.5806 70.6235,-38.9781 70.6021,0.0387773 L70.6021,0.0387773 C70.5806,39.0557 38.9781,70.6235 -0.0387784,70.6021 Z" fill="#06100b" fill-opacity="1" stroke-width="0.266075" stroke="#dfdfdf" stroke-linecap="square" stroke-linejoin="miter" />
		<path d="M-0.0191179,69.6145 L-0.0191179,69.6145 C-38.4903,69.6039 -69.6251,38.4521 -69.6145,-0.019119 L-69.6145,-0.019119 C-69.604,-38.4903 -38.4521,-69.6251 0.0191179,-69.6145 L0.0191179,-69.6145 C38.4903,-69.6039 69.6251,-38.4521 69.6145,0.0191169 L69.6145,0.0191169 C69.604,38.4903 38.4521,69.6251 -0.0191179,69.6145 Z" fill="#06100b" fill-opacity="1" stroke-width="0.266075" stroke="#dfdfdf" stroke-linecap="square" stroke-linejoin="miter" />
		<path d="M3.0909,69.5444 L3.0909,69.5444 C-35.3415,71.2526 -67.8363,41.5234 -69.5444,3.0909 L-69.5444,3.0909 C-71.2526,-35.3415 -41.5234,-67.8363 -3.0909,-69.5444 L-3.0909,-69.5444 C35.3415,-71.2526 67.8363,-41.5233 69.5444,-3.0909 L69.5444,-3.0909 C71.2526,35.3416 41.5233,67.8363 3.0909,69.5444 Z" fill="#06100b" fill-opacity="1" stroke-width="0.266075" stroke="#dfdfdf" stroke-linecap="square" stroke-linejoin="miter" />
		<path d="M3.05023,68.6294 L3.05023,68.6294 C-34.8765,70.315 -66.9437,40.977 -68.6294,3.05023 L-68.6294,3.05023 C-70.315,-34.8765 -40.977,-66.9437 -3.05023,-68.6294 L-3.05023,-68.6294 C34.8765,-70.315 66.9437,-40.977 68.6294,-3.05023 L68.6294,-3.05023 C70.315,34.8765 40.977,66.9437 3.05023,68.6294 Z" fill="#06100b" fill-opacity="1" stroke-width="0.266075" stroke="#dfdfdf" stroke-linecap="square" stroke-linejoin="miter" />
		<path d="M2.98818,67.6521 L2.98818,67.6521 C-34.3985,69.3035 -66.0007,40.3749 -67.6521,2.98818 L-67.6521,2.98818 C-69.3035,-34.3985 -40.3749,-66.0007 -2.98818,-67.6521 L-2.98818,-67.6521 C34.3985,-69.3035 66.0007,-40.3749 67.6521,-2.98818 L67.6521,-2.98818 C69.3035,34.3985 40.3749,66.0007 2.98818,67.6521 Z" fill="#06100b" fill-opacity="1" stroke-width="0.266075" stroke="#dfdfdf" stroke-linecap="square" stroke-linejoin="miter" />
		<path d="M2.9647,66.705 L2.9647,66.705 C-33.8986,68.3434 -65.0666,39.828 -66.705,2.9647 L-66.705,2.9647 C-68.3434,-33.8986 -39.828,-65.0666 -2.9647,-66.705 L-2.9647,-66.705 C33.8986,-68.3434 65.0666,-39.828 66.705,-2.9647 L66.705,-2.9647 C68.3434,33.8986 39.828,65.0666 2.9647,66.705 Z" fill="#06100b" fill-opacity="1" stroke-width="0.266075" stroke="#dfdfdf" stroke-linecap="square" stroke-linejoin="miter" />
		<path d="M1.50071,65.8809 L1.50071,65.8809 C-34.9072,66.7103 -65.0516,37.9086 -65.8809,1.50071 L-65.8809,1.50071 C-66.7103,-34.9072 -37.9086,-65.0516 -1.50071,-65.8809 L-1.50071,-65.8809 C34.9072,-66.7103 65.0516,-37.9086 65.8809,-1.50071 L65.8809,-1.50071 C66.7103,34.9072 37.9086,65.0516 1.50071,65.8809 Z" fill="#06100b" fill-opacity="1" stroke-width="0.266075" stroke="#dfdfdf" stroke-linecap="square" stroke-linejoin="miter" />
		<path d="M1.48096,65.0141 L1.48096,65.0141 C-34.4479,65.8325 -64.1956,37.4098 -65.0141,1.48096 L-65.0141,1.48096 C-65.8325,-34.4479 -37.4098,-64.1956 -1.48096,-65.0141 L-1.48096,-65.0141 C34.4479,-65.8325 64.1956,-37.4098 65.0141,-1.48096 L65.0141,-1.48096 C65.8325,34.4479 37.4098,64.1956 1.48096,65.0141 Z" fill="#06100b" fill-opacity="1" stroke-width="0.266075" stroke="#dfdfdf" stroke-linecap="square" stroke-linejoin="miter" />
		<path d="M1.44225,64.0879 L1.44225,64.0879 C-33.9747,64.8849 -63.2909,36.8593 -64.0879,1.44225 L-64.0879,1.44225 C-64.8849,-33.9747 -36.8593,-63.2909 -1.44225,-64.0879 L-1.44225,-64.0879 C33.9747,-64.8849 63.2909,-36.8593 64.0879,-1.44225 L64.0879,-1.44225 C64.8849,33.9748 36.8593,63.2909 1.44225,64.0879 Z" fill="#06100b" fill-opacity="1" stroke-width="0.266075" stroke="#dfdfdf" stroke-linecap="square" stroke-linejoin="miter" />
		<path d="M1.43943,63.1911 L1.43943,63.1911 C-33.482,63.9866 -62.3956,36.3608 -63.1911,1.43943 L-63.1911,1.43943 C-63.9866,-33.482 -36.3608,-62.3956 -1.43943,-63.1911 L-1.43943,-63.1911 C33.4819,-63.9866 62.3956,-36.3608 63.1911,-1.43944 L63.1911,-1.43944 C63.9866,33.482 36.3608,62.3956 1.43943,63.1911 Z" fill="#06100b" fill-opacity="1" stroke-width="0.266075" stroke="#dfdfdf" stroke-linecap="square" stroke-linejoin="miter" />
		<path d="M2.77026,62.3302 L2.77026,62.3302 C-31.6754,63.8611 -60.7993,37.2159 -62.3302,2.77026 L-62.3302,2.77026 C-63.8611,-31.6754 -37.2159,-60.7993 -2.77026,-62.3302 L-2.77026,-62.3302 C31.6754,-63.8611 60.7993,-37.2159 62.3302,-2.77026 L62.3302,-2.77026 C63.8611,31.6754 37.2159,60.7993 2.77026,62.3302 Z" fill="#06100b" fill-opacity="1" stroke-width="0.266075" stroke="#dfdfdf" stroke-linecap="square" stroke-linejoin="miter" />
		<path d="M2.73381,61.51 L2.73381,61.51 C-31.2586,63.0208 -59.9993,36.7262 -61.51,2.73381 L-61.51,2.73381 C-63.0208,-31.2586 -36.7262,-59.9993 -2.73381,-61.51 L-2.73381,-61.51 C31.2586,-63.0208 59.9993,-36.7262 61.51,-2.73381 L61.51,-2.73381 C63.0208,31.2586 36.7262,59.9993 2.73381,61.51 Z" fill="#06100b" fill-opacity="1" stroke-width="0.266075" stroke="#dfdfdf" stroke-linecap="square" stroke-linejoin="miter" />
		<path d="M2.6782,60.6342 L2.6782,60.6342 C-30.8302,62.1142 -59.1541,36.1866 -60.6342,2.6782 L-60.6342,2.6782 C-62.1142,-30.8301 -36.1865,-59.1541 -2.6782,-60.6342 L-2.6782,-60.6342 C30.8301,-62.1142 59.1541,-36.1865 60.6342,-2.6782 L60.6342,-2.6782 C62.1142,30.8302 36.1865,59.1541 2.6782,60.6342 Z" fill="#06100b" fill-opacity="1" stroke-width="0.266075" stroke="#dfdfdf" stroke-linecap="square" stroke-linejoin="miter" />
		<path d="M2.65716,59.7853 L2.65716,59.7853 C-30.3821,61.2537 -58.3169,35.6964 -59.7853,2.65716 L-59.7853,2.65716 C-61.2537,-30.3821 -35.6964,-58.3169 -2.65716,-59.7853 L-2.65716,-59.7853 C30.3821,-61.2537 58.3169,-35.6964 59.7853,-2.65716 L59.7853,-2.65716 C61.2537,30.3821 35.6964,58.3169 2.65716,59.7853 Z" fill="#06100b" fill-opacity="1" stroke-width="0.266075" stroke="#dfdfdf" stroke-linecap="square" stroke-linejoin="miter" />
		<path d="M-8.05688e-08,59.8456 L-8.05688e-08,59.8456 C-33.0725,59.8456 -59.8456,33.0725 -59.8456,-8.63735e-07 L-59.8456,-8.63735e-07 C-59.8456,-33.0725 -33.0725,-59.8456 -8.05688e-08,-59.8456 L-8.05688e-08,-59.8456 C33.0725,-59.8456 59.8456,-33.0725 59.8456,-8.63735e-07 L59.8456,-8.63735e-07 C59.8456,33.0725 33.0725,59.8456 -8.05688e-08,59.8456 Z" fill="#06100b" fill-opacity="1" stroke-width="0.266075" stroke="#dfdfdf" stroke-linecap="square" stroke-linejoin="miter" />
		<path d="M-1.03378e-07,59.0581 L-1.03378e-07,59.0581 C-32.6374,59.0581 -59.0581,32.6374 -59.0581,-8.43641e-07 L-59.0581,-8.43641e-07 C-59.0581,-32.6374 -32.6374,-59.0581 -1.03378e-07,-59.0581 L-1.03378e-07,-59.0581 C32.6374,-59.0581 59.0581,-32.6374 59.0581,-8.43641e-07 L59.0581,-8.43641e-07 C59.0581,32.6374 32.6374,59.0581 -1.03378e-07,59.0581 Z" fill="#06100b" fill-opacity="1" stroke-width="0.266075" stroke="#dfdfdf" stroke-linecap="square" stroke-linejoin="miter" />
		<path d="M-0.0159878,58.2164 L-0.0159878,58.2164 C-32.1882,58.2076 -58.2253,32.1562 -58.2164,-0.0159886 L-58.2164,-0.0159886 C-58.2076,-32.1882 -32.1562,-58.2253 0.0159876,-58.2164 L0.0159876,-58.2164 C32.1882,-58.2076 58.2253,-32.1562 58.2164,0.0159869 L58.2164,0.0159869 C58.2076,32.1882 32.1562,58.2253 -0.0159878,58.2164 Z" fill="#06100b" fill-opacity="1" stroke-width="0.266075" stroke="#dfdfdf" stroke-linecap="square" stroke-linejoin="miter" />
		<path d="M7.10543e-15,57.4021 L7.10543e-15,57.4021 C-31.7222,57.4021 -57.4021,31.7222 -57.4021,-8.87391e-07 L-57.4021,-8.87391e-07 C-57.4021,-31.7222 -31.7222,-57.4021 7.10543e-15,-57.4021 L7.10543e-15,-57.4021 C31.7222,-57.4021 57.4021,-31.7222 57.4021,-8.87391e-07 L57.4021,-8.87391e-07 C57.4021,31.7222 31.7222,57.4021 7.10543e-15,57.4021 Z" fill="#06100b" fill-opacity="1" stroke-width="0.266075" stroke="#dfdfdf" stroke-linecap="square" stroke-linejoin="miter" />
		<path d="M-1.22588,56.6385 L-1.22588,56.6385 C-32.5261,55.961 -57.316,30.0743 -56.6385,-1.22588 L-56.6385,-1.22588 C-55.961,-32.5261 -30.0743,-57.316 1.22588,-56.6385 L1.22588,-56.6385 C32.5261,-55.961 57.316,-30.0743 56.6385,1.22588 L56.6385,1.22588 C55.961,32.5261 30.0743,57.316 -1.22588,56.6385 Z" fill="#06100b" fill-opacity="1" stroke-width="0.266075" stroke="#dfdfdf" stroke-linecap="square" stroke-linejoin="miter" />
		<path d="M-1.20975,55.8932 L-1.20975,55.8932 C-32.0981,55.2247 -56.5618,29.6786 -55.8933,-1.20975 L-55.8933,-1.20975 C-55.2247,-32.0981 -29.6786,-56.5618 1.20975,-55.8932 L1.20975,-55.8932 C32.0981,-55.2247 56.5618,-29.6786 55.8933,1.20975 L55.8933,1.20975 C55.2247,32.0981 29.6786,56.5618 -1.20975,55.8932 Z" fill="#06100b" fill-opacity="1" stroke-width="0.266075" stroke="#dfdfdf" stroke-linecap="square" stroke-linejoin="miter" />
		<path d="M-1.20764,55.0963 L-1.20764,55.0963 C-31.6556,54.429 -55.7637,29.2403 -55.0963,-1.20764 L-55.0963,-1.20764 C-54.429,-31.6556 -29.2403,-55.7637 1.20764,-55.0963 L1.20764,-55.0963 C31.6556,-54.429 55.7637,-29.2403 55.0963,1.20764 L55.0963,1.20764 C54.429,31.6556 29.2403,55.7637 -1.20764,55.0963 Z" fill="#06100b" fill-opacity="1" stroke-width="0.266075" stroke="#dfdfdf" stroke-linecap="square" stroke-linejoin="miter" />
		<path d="M-1.17583,54.326 L-1.17583,54.326 C-31.1981,53.6762 -54.9758,28.8464 -54.326,-1.17583 L-54.326,-1.17583 C-53.6762,-31.1981 -28.8464,-54.9758 1.17583,-54.326 L1.17583,-54.326 C31.1981,-53.6762 54.9758,-28.8464 54.326,1.17583 L54.326,1.17583 C53.6762,31.1981 28.8464,54.9758 -1.17583,54.326 Z" fill="#06100b" fill-opacity="1" stroke-width="0.266075" stroke="#dfdfdf" stroke-linecap="square" stroke-linejoin="miter" />
		<path d="M-8.05689e-08,53.6374 L-8.05689e-08,53.6374 C-29.6417,53.6374 -53.6374,29.6417 -53.6374,-7.67763e-07 L-53.6374,-7.67763e-07 C-53.6374,-29.6417 -29.6417,-53.6374 -8.05689e-08,-53.6374 L-8.05689e-08,-53.6374 C29.6417,-53.6374 53.6374,-29.6417 53.6374,-7.67763e-07 L53.6374,-7.67763e-07 C53.6374,29.6417 29.6417,53.6374 -8.05689e-08,53.6374 Z" fill="#06100b" fill-opacity="1" stroke-width="0.266075" stroke="#dfdfdf" stroke-linecap="square" stroke-linejoin="miter" />
		<path d="M-1.01012e-07,52.9317 L-1.01012e-07,52.9317 C-29.2517,52.9317 -52.9317,29.2517 -52.9317,-7.49753e-07 L-52.9317,-7.49753e-07 C-52.9317,-29.2517 -29.2517,-52.9317 -1.01012e-07,-52.9317 L-1.01012e-07,-52.9317 C29.2517,-52.9317 52.9317,-29.2517 52.9317,-7.49753e-07 L52.9317,-7.49753e-07 C52.9317,29.2517 29.2517,52.9317 -1.01012e-07,52.9317 Z" fill="#06100b" fill-opacity="1" stroke-width="0.266075" stroke="#dfdfdf" stroke-linecap="square" stroke-linejoin="miter" />
		<path d="M-0.0143293,52.1773 L-0.0143293,52.1773 C-28.8492,52.1694 -52.1852,28.8205 -52.1773,-0.01433 L-52.1773,-0.01433 C-52.1694,-28.8492 -28.8205,-52.1852 0.0143291,-52.1773 L0.0143291,-52.1773 C28.8491,-52.1694 52.1852,-28.8205 52.1773,0.0143285 L52.1773,0.0143285 C52.1694,28.8492 28.8205,52.1852 -0.0143293,52.1773 Z" fill="#06100b" fill-opacity="1" stroke-width="0.266075" stroke="#dfdfdf" stroke-linecap="square" stroke-linejoin="miter" />
		<path d="M-8.35787e-09,51.4475 L-8.35787e-09,51.4475 C-28.4315,51.4475 -51.4475,28.4315 -51.4475,-7.88964e-07 L-51.4475,-7.88964e-07 C-51.4475,-28.4315 -28.4315,-51.4475 -8.35787e-09,-51.4475 L-8.35787e-09,-51.4475 C28.4315,-51.4475 51.4475,-28.4315 51.4475,-7.88964e-07 L51.4475,-7.88964e-07 C51.4475,28.4315 28.4315,51.4475 -8.35787e-09,51.4475 Z" fill="#06100b" fill-opacity="1" stroke-width="0.266075" stroke="#dfdfdf" stroke-linecap="square" stroke-linejoin="miter" />
		<path d="M2.29839,51.395 L2.29839,51.395 C-26.1041,52.6652 -50.1249,30.7009 -51.395,2.29839 L-51.395,2.29839 C-52.6652,-26.1041 -30.7009,-50.1249 -2.29839,-51.395 L-2.29839,-51.395 C26.1041,-52.6652 50.1249,-30.7009 51.395,-2.29839 L51.395,-2.29839 C52.6652,26.1041 30.7009,50.1249 2.29839,51.395 Z" fill="#06100b" fill-opacity="1" stroke-width="0.266075" stroke="#dfdfdf" stroke-linecap="square" stroke-linejoin="miter" />
		<path d="M2.26815,50.7188 L2.26815,50.7188 C-25.7606,51.9722 -49.4653,30.297 -50.7188,2.26815 L-50.7188,2.26815 C-51.9722,-25.7606 -30.297,-49.4653 -2.26815,-50.7188 L-2.26815,-50.7188 C25.7606,-51.9722 49.4653,-30.297 50.7188,-2.26815 L50.7188,-2.26815 C51.9722,25.7607 30.2969,49.4653 2.26815,50.7188 Z" fill="#06100b" fill-opacity="1" stroke-width="0.266075" stroke="#dfdfdf" stroke-linecap="square" stroke-linejoin="miter" />
		<path d="M2.2221,49.9966 L2.2221,49.9966 C-25.4076,51.2246 -48.7686,29.8518 -49.9966,2.2221 L-49.9966,2.2221 C-51.2246,-25.4076 -29.8518,-48.7686 -2.2221,-49.9966 L-2.2221,-49.9966 C25.4076,-51.2246 48.7686,-29.8518 49.9966,-2.2221 L49.9966,-2.2221 C51.2246,25.4076 29.8518,48.7686 2.2221,49.9966 Z" fill="#06100b" fill-opacity="1" stroke-width="0.266075" stroke="#dfdfdf" stroke-linecap="square" stroke-linejoin="miter" />
		<path d="M2.20455,49.2966 L2.20455,49.2966 C-25.0383,50.5149 -48.0783,29.4474 -49.2966,2.20455 L-49.2966,2.20455 C-50.5149,-25.0383 -29.4474,-48.0783 -2.20455,-49.2966 L-2.20455,-49.2966 C25.0383,-50.5149 48.0783,-29.4474 49.2966,-2.20455 L49.2966,-2.20455 C50.5149,25.0383 29.4474,48.0783 2.20455,49.2966 Z" fill="#06100b" fill-opacity="1" stroke-width="0.266075" stroke="#dfdfdf" stroke-linecap="square" stroke-linejoin="miter" />
		<path d="M1.12244,48.6879 L1.12244,48.6879 C-25.784,49.3082 -48.0676,28.0289 -48.6879,1.12244 L-48.6879,1.12244 C-49.3082,-25.784 -28.0289,-48.0676 -1.12244,-48.6879 L-1.12244,-48.6879 C25.784,-49.3082 48.0676,-28.0289 48.6879,-1.12244 L48.6879,-1.12244 C49.3082,25.784 28.0289,48.0676 1.12244,48.6879 Z" fill="#06100b" fill-opacity="1" stroke-width="0.266075" stroke="#dfdfdf" stroke-linecap="square" stroke-linejoin="miter" />
		<path d="M1.10767,48.0473 L1.10767,48.0473 C-25.4448,48.6594 -47.4351,27.6601 -48.0473,1.10767 L-48.0473,1.10767 C-48.6594,-25.4448 -27.6601,-47.4351 -1.10767,-48.0473 L-1.10767,-48.0473 C25.4448,-48.6594 47.4351,-27.6601 48.0473,-1.10768 L48.0473,-1.10768 C48.6594,25.4448 27.6601,47.4351 1.10767,48.0473 Z" fill="#06100b" fill-opacity="1" stroke-width="0.266075" stroke="#dfdfdf" stroke-linecap="square" stroke-linejoin="miter" />
		<path d="M1.07888,47.3628 L1.07888,47.3628 C-25.0953,47.9591 -46.7666,27.2531 -47.3628,1.07888 L-47.3628,1.07888 C-47.9591,-25.0953 -27.2531,-46.7666 -1.07888,-47.3628 L-1.07888,-47.3628 C25.0953,-47.9591 46.7666,-27.2531 47.3628,-1.07888 L47.3628,-1.07888 C47.9591,25.0953 27.2531,46.7666 1.07888,47.3628 Z" fill="#06100b" fill-opacity="1" stroke-width="0.266075" stroke="#dfdfdf" stroke-linecap="square" stroke-linejoin="miter" />
		<path d="M1.07662,46.7 L1.07662,46.7 C-24.7313,47.295 -46.1051,26.8845 -46.7,1.07661 L-46.7,1.07661 C-47.295,-24.7313 -26.8845,-46.1051 -1.07662,-46.7 L-1.07662,-46.7 C24.7313,-47.295 46.1051,-26.8845 46.7,-1.07662 L46.7,-1.07662 C47.295,24.7313 26.8845,46.1051 1.07662,46.7 Z" fill="#06100b" fill-opacity="1" stroke-width="0.266075" stroke="#dfdfdf" stroke-linecap="square" stroke-linejoin="miter" />
		<path d="M2.05997,46.0635 L2.05997,46.0635 C-23.3962,47.2019 -44.9251,27.5161 -46.0635,2.05997 L-46.0635,2.05997 C-47.2019,-23.3962 -27.5161,-44.9251 -2.05997,-46.0635 L-2.05997,-46.0635 C23.3962,-47.2019 44.9251,-27.5161 46.0635,-2.05997 L46.0635,-2.05997 C47.2019,23.3962 27.5161,44.9251 2.05997,46.0635 Z" fill="#06100b" fill-opacity="1" stroke-width="0.266075" stroke="#dfdfdf" stroke-linecap="square" stroke-linejoin="miter" />
		<path d="M2.03286,45.4574 L2.03286,45.4574 C-23.0884,46.5809 -44.334,27.1541 -45.4574,2.03286 L-45.4574,2.03286 C-46.5809,-23.0883 -27.1541,-44.334 -2.03286,-45.4574 L-2.03286,-45.4574 C23.0883,-46.5809 44.334,-27.1541 45.4574,-2.03286 L45.4574,-2.03286 C46.5809,23.0884 27.1541,44.334 2.03286,45.4574 Z" fill="#06100b" fill-opacity="1" stroke-width="0.266075" stroke="#dfdfdf" stroke-linecap="square" stroke-linejoin="miter" />
		<path d="M1.99159,44.8101 L1.99159,44.8101 C-22.7719,45.9107 -43.7095,26.7551 -44.8101,1.99158 L-44.8101,1.99158 C-45.9107,-22.7719 -26.7551,-43.7095 -1.99159,-44.8101 L-1.99159,-44.8101 C22.7719,-45.9107 43.7095,-26.7551 44.8101,-1.99159 L44.8101,-1.99159 C45.9107,22.7719 26.7551,43.7095 1.99159,44.8101 Z" fill="#06100b" fill-opacity="1" stroke-width="0.266075" stroke="#dfdfdf" stroke-linecap="square" stroke-linejoin="miter" />
		<path d="M1.97586,44.1828 L1.97586,44.1828 C-22.441,45.2747 -43.0909,26.3927 -44.1828,1.97586 L-44.1828,1.97586 C-45.2747,-22.441 -26.3927,-43.0909 -1.97586,-44.1828 L-1.97586,-44.1828 C22.441,-45.2747 43.0909,-26.3927 44.1828,-1.97586 L44.1828,-1.97586 C45.2747,22.441 26.3927,43.0909 1.97586,44.1828 Z" fill="#06100b" fill-opacity="1" stroke-width="0.266075" stroke="#dfdfdf" stroke-linecap="square" stroke-linejoin="miter" />
	</g>
</svg>