<?xml version='1.0' encoding='iso-8859-1'?>
<!DOCTYPE svg PUBLIC '-//W3C//DTD SVG 1.1//EN' 'http://www.w3.org/Graphics/SVG/1.1/DTD/svg11.dtd'>
<svg version="1.1" xmlns="http://www.w3.org/2000/svg" viewBox="0 0 380.16 380.16" xmlns:xlink="http://www.w3.org/1999/xlink" enable-background="new 0 0 380.16 380.16" fill="#A1A0A1">
  <g>

    <path d="m371.055,327.024l-90.768-90.768c-2.929-2.929-7.678-2.929-10.606,0l-3.631,3.631-8.907-8.907c43.357-56.232 39.279-137.498-12.24-189.017-55.95-55.951-146.989-55.951-202.939,0-55.951,55.95-55.951,146.989 0,202.939 27.975,27.975 64.723,41.963 101.47,41.963 30.925,0 61.85-9.909 87.547-29.723l8.907,8.907-3.631,3.631c-1.407,1.406-2.197,3.314-2.197,5.303s0.79,3.897 2.197,5.303l90.768,90.768c6.07,6.07 14.042,9.104 22.016,9.104 7.972,0 15.946-3.035 22.016-9.104 12.138-12.138 12.138-31.89-0.002-44.03zm-318.486-92.728c-24.271-24.271-37.637-56.54-37.637-90.863s13.367-66.593 37.637-90.863c24.271-24.27 56.54-37.637 90.863-37.637s66.594,13.367 90.864,37.637c24.271,24.271 37.637,56.54 37.637,90.863s-13.366,66.593-37.637,90.863c-24.271,24.27-56.54,37.637-90.863,37.637s-66.593-13.366-90.864-37.637zm189.827,13.05c0.843-0.803 1.679-1.616 2.506-2.444s1.641-1.664 2.444-2.506l8.097,8.097-4.95,4.95-8.097-8.097zm118.053,113.103c-6.292,6.291-16.527,6.29-22.818,0l-85.465-85.465 22.818-22.818 85.465,85.465c6.291,6.291 6.291,16.527-5.68434e-14,22.818z"/>
  </g>
</svg>
